<svg width="72" height="72" viewBox="0 0 72 72" fill="none" xmlns="http://www.w3.org/2000/svg">
<g clip-path="url(#clip0_1_138)" filter="url(#filter0_d_1_138)">
<path d="M40.2057 13.8971L37.1886 4.75429L14.88 0L4 12.3429L38.0114 29.7143L40.2057 13.8971Z" fill="url(#paint0_linear_1_138)"/>
<path d="M29.6 37.8514L28.96 18.8343L4 12.3429L10.1257 49.0057L29.6 48.8229V37.8514Z" fill="url(#paint1_linear_1_138)"/>
<path d="M24.2057 37.4858L25.3943 22.4L43.4971 3.84005L59.68 6.76576L68 27.52L59.3143 36.1143L45.1429 33.8286L36.3657 43.0629L24.2057 37.4858Z" fill="url(#paint2_linear_1_138)"/>
<path d="M43.4972 3.84005L17.5315 26.88L22.56 56.5029L44.1372 64L68 49.7372L43.4972 3.84005Z" fill="url(#paint3_linear_1_138)"/>
<path d="M16.2514 12.2514H55.7485V51.7486H16.2514V12.2514Z" fill="black"/>
<path d="M20 44.3429H34.8114V46.8114H20V44.3429Z" fill="white"/>
<path d="M19.817 17.3714H26.4913C30.4228 17.3714 32.7999 19.6571 32.7999 23.04V23.1314C32.7999 26.9714 29.8742 28.8914 26.1256 28.8914H23.3828V33.8286H19.817V17.3714ZM26.3085 25.6C28.137 25.6 29.1428 24.5029 29.1428 23.1314V23.04C29.1428 21.3943 28.0456 20.5714 26.217 20.5714H23.4742V25.6H26.3085Z" fill="white"/>
<path d="M33.7143 31.4514L35.8171 28.8914C37.28 30.0799 38.8343 30.9028 40.7543 30.9028C42.2171 30.9028 43.1314 30.3542 43.1314 29.3485V29.2571C43.1314 28.3428 42.5828 27.8856 39.84 27.1542C36.5486 26.3314 34.3543 25.4171 34.3543 22.1256V22.0342C34.3543 19.0171 36.7314 17.0971 40.1143 17.0971C42.4914 17.0971 44.5943 17.8285 46.24 19.1999L44.32 21.9428C42.8571 20.9371 41.3943 20.2971 40.0228 20.2971C38.6514 20.2971 37.92 20.9371 37.92 21.7599V21.8514C37.92 22.9485 38.6514 23.3142 41.4857 24.0456C44.7771 24.9599 46.6971 26.1485 46.6971 28.9828V29.0742C46.6971 32.3656 44.2285 34.1942 40.6628 34.1942C38.1943 34.1028 35.7257 33.1885 33.7143 31.4514Z" fill="white"/>
</g>
<defs>
<filter id="filter0_d_1_138" x="0" y="0" width="72" height="72" filterUnits="userSpaceOnUse" color-interpolation-filters="sRGB">
<feFlood flood-opacity="0" result="BackgroundImageFix"/>
<feColorMatrix in="SourceAlpha" type="matrix" values="0 0 0 0 0 0 0 0 0 0 0 0 0 0 0 0 0 0 127 0" result="hardAlpha"/>
<feOffset dy="4"/>
<feGaussianBlur stdDeviation="2"/>
<feComposite in2="hardAlpha" operator="out"/>
<feColorMatrix type="matrix" values="0 0 0 0 0 0 0 0 0 0 0 0 0 0 0 0 0 0 0.25 0"/>
<feBlend mode="normal" in2="BackgroundImageFix" result="effect1_dropShadow_1_138"/>
<feBlend mode="normal" in="SourceGraphic" in2="effect1_dropShadow_1_138" result="shape"/>
</filter>
<linearGradient id="paint0_linear_1_138" x1="4.51017" y1="42.8306" x2="31.3801" y2="7.33806" gradientUnits="userSpaceOnUse">
<stop offset="0.016" stop-color="#765AF8"/>
<stop offset="0.382" stop-color="#B345F1"/>
<stop offset="0.758" stop-color="#FA3293"/>
<stop offset="0.941" stop-color="#FF318C"/>
</linearGradient>
<linearGradient id="paint1_linear_1_138" x1="6.496" y1="44.2322" x2="33.323" y2="8.79634" gradientUnits="userSpaceOnUse">
<stop offset="0.016" stop-color="#765AF8"/>
<stop offset="0.382" stop-color="#B345F1"/>
<stop offset="0.758" stop-color="#FA3293"/>
<stop offset="0.941" stop-color="#FF318C"/>
</linearGradient>
<linearGradient id="paint2_linear_1_138" x1="50.4978" y1="42.4275" x2="35.3362" y2="6.44394" gradientUnits="userSpaceOnUse">
<stop offset="0.183" stop-color="#765AF8"/>
<stop offset="0.238" stop-color="#8655F6"/>
<stop offset="0.345" stop-color="#9F4CF3"/>
<stop offset="0.443" stop-color="#AE47F2"/>
<stop offset="0.522" stop-color="#B345F1"/>
</linearGradient>
<linearGradient id="paint3_linear_1_138" x1="61.8432" y1="52.4243" x2="26.5811" y2="25.1575" gradientUnits="userSpaceOnUse">
<stop offset="0.016" stop-color="#765AF8"/>
<stop offset="0.382" stop-color="#B345F1"/>
</linearGradient>
<clipPath id="clip0_1_138">
<rect width="64" height="64" fill="white" transform="translate(4)"/>
</clipPath>
</defs>
</svg>
